PathFileType   4   (X/Y/Z)
DataRate	CameraRate	NumFrames	NumMarkers	Units	OrigDataRate	OrigDataStartFrame	OrigNumFrames
120.0	120.0	7	37	mm	120.0	52	206
Frame#	Time	midhip	hip_r	hip_l	knee_r	knee_l	ankle_r	ankle_l	midasis	asis_r	asis_l	psis_r	psis_l	epicondLat_r	epicondLat_l	epicondMed_r	epicondMed_l	malleolusLat_r	malleolusLat_l	malleolusMedv_r	malleolusMedv_l	neck	subclavicle_r	subclavicle_l	sternalnotch	xyphoidprocess	thighwand_r	thighwand_l	upperleg1_r	upperleg1_l	upperleg2_r	upperleg2_l	shankwand_r	shankwand_l	lowerleg1_r	lowerleg1_l	toe_r	toe_l
 	 	X1	Y1	Z1	X2	Y2	Z2	X3	Y3	Z3	X4	Y4	Z4	X5	Y5	Z5	X6	Y6	Z6	X7	Y7	Z7	X8	Y8	Z8	X9	Y9	Z9	X10	Y10	Z10	X11	Y11	Z11	X12	Y12	Z12	X13	Y13	Z13	X14	Y14	Z14	X15	Y15	Z15	X16	Y16	Z16	X17	Y17	Z17	X18	Y18	Z18	X19	Y19	Z19	X20	Y20	Z20	X21	Y21	Z21	X22	Y22	Z22	X23	Y23	Z23	X24	Y24	Z24	X25	Y25	Z25	X26	Y26	Z26	X27	Y27	Z27	X28	Y28	Z28	X29	Y29	Z29	X30	Y30	Z30	X31	Y31	Z31	X32	Y32	Z32	X33	Y33	Z33	X34	Y34	Z34	X35	Y35	Z35	X36	Y36	Z36	X37	Y37	Z37

	52	0.58333	1569.541	630.352	-191.189	1563.284	646.458	-139.489	1581.864	639.755	-255.261	1735.811	401.475	-94.028	1563.133	342.120	-226.526	1890.582	155.398	-46.951	1510.710	55.161	-222.875	1602.822	712.994	-196.567	1588.936	718.003	-110.050	1616.707	707.986	-283.083	1461.962	703.778	-169.862	1474.562	698.991	-253.498	1726.681	403.404	-48.984	1566.392	337.315	-274.173	1741.357	396.933	-133.832	1552.797	349.530	-185.934	1879.935	154.777	-15.194	1504.281	55.930	-254.724	1895.198	159.924	-73.354	1504.287	55.522	-189.331	1509.508	1031.582	-243.128	1596.685	971.485	-179.922	1606.874	960.349	-269.645	1586.234	979.423	-220.380	1630.005	845.347	-204.003	1781.188	545.977	-115.759	1641.897	416.220	-330.911	1690.018	549.274	-86.561	1631.766	476.422	-253.295	1729.959	472.555	-70.575	1617.669	394.697	-229.971	1844.533	239.676	42.644	1618.747	148.718	-192.902	1809.061	284.105	-27.343	1567.623	211.054	-219.818	1972.870	186.055	-30.743	1594.093	36.701	-217.629
	53	0.59167	1572.465	630.309	-190.957	1566.485	646.491	-139.378	1584.366	639.583	-255.248	1741.925	403.456	-94.351	1564.324	341.999	-226.622	1901.626	160.603	-47.553	1510.799	55.176	-222.842	1605.599	712.960	-196.825	1592.247	718.118	-110.307	1618.951	707.802	-283.343	1464.853	703.666	-169.024	1477.023	698.701	-252.767	1733.107	405.446	-49.248	1567.110	337.225	-274.303	1746.993	398.672	-133.902	1554.203	349.336	-185.968	1891.239	159.909	-15.711	1504.283	55.973	-254.672	1906.301	165.372	-74.203	1504.282	55.571	-189.236	1513.253	1031.459	-242.231	1600.361	970.960	-179.316	1610.353	959.886	-269.039	1589.904	978.972	-219.759	1633.193	844.733	-203.571	1785.474	548.251	-116.899	1642.444	415.645	-331.602	1694.755	550.851	-87.202	1633.249	475.841	-253.951	1735.357	474.598	-71.022	1618.926	394.188	-230.549	1854.688	244.373	42.173	1619.189	148.383	-193.207	1817.935	287.766	-27.618	1568.219	210.946	-220.002	1983.749	192.411	-31.817	1594.084	36.698	-217.703
	54	0.60000	1575.428	630.200	-190.787	1569.726	646.461	-139.310	1586.841	639.347	-255.283	1747.781	405.172	-94.640	1565.721	341.833	-226.687	1912.426	165.665	-48.235	1510.898	55.181	-222.779	1608.420	712.844	-197.139	1595.648	718.154	-110.597	1621.192	707.535	-283.681	1467.796	703.567	-168.152	1479.518	698.394	-252.001	1739.285	407.264	-49.480	1567.926	337.090	-274.401	1752.077	400.054	-133.874	1555.817	348.937	-186.165	1902.314	164.900	-16.307	1504.297	56.010	-254.591	1917.125	170.683	-75.180	1504.285	55.574	-189.104	1517.045	1031.263	-241.246	1604.123	970.334	-178.740	1613.827	959.391	-268.414	1593.640	978.492	-219.150	1636.440	844.040	-203.252	1789.599	550.193	-118.084	1642.886	415.039	-332.411	1699.293	552.178	-87.638	1634.786	475.202	-254.693	1740.449	476.268	-71.335	1620.287	393.557	-231.334	1864.618	248.908	41.639	1619.684	147.962	-193.478	1826.626	291.244	-27.986	1569.032	210.778	-220.156	1994.307	198.726	-33.084	1594.082	36.699	-217.757
	55	0.60833	1578.420	630.025	-190.671	1572.990	646.362	-139.266	1589.287	639.050	-255.345	1753.383	406.626	-94.911	1567.319	341.619	-226.723	1922.965	170.573	-48.972	1511.005	55.180	-222.691	1611.272	712.648	-197.481	1599.115	718.102	-110.891	1623.429	707.193	-284.071	1470.798	703.468	-167.250	1482.055	698.082	-251.201	1745.234	408.860	-49.694	1568.863	336.910	-274.467	1756.838	401.101	-133.772	1557.704	348.481	-186.379	1913.127	169.735	-16.960	1504.324	56.046	-254.485	1927.623	175.690	-75.949	1504.398	55.591	-189.003	1520.750	1031.066	-240.155	1608.032	969.679	-178.180	1617.386	958.882	-267.900	1597.440	977.989	-218.557	1639.926	843.347	-203.042	1793.568	551.830	-119.357	1643.273	414.410	-333.295	1703.617	553.216	-87.987	1636.393	474.497	-255.626	1745.323	477.611	-71.582	1621.810	392.918	-232.278	1874.263	253.255	41.052	1620.230	147.464	-193.714	1835.056	294.566	-28.428	1569.836	210.534	-220.291	2004.510	204.968	-34.520	1594.089	36.706	-217.789
	56	0.61667	1581.424	629.782	-190.596	1576.260	646.193	-139.227	1591.704	638.704	-255.411	1758.744	407.828	-95.178	1569.095	341.360	-226.733	1933.203	175.305	-49.745	1511.118	55.177	-222.584	1614.144	712.376	-197.818	1602.625	717.963	-111.158	1625.663	706.790	-284.477	1473.867	703.353	-166.322	1484.641	697.779	-250.369	1750.981	410.252	-49.903	1569.934	336.690	-274.498	1761.565	401.848	-133.572	1559.785	348.012	-186.531	1923.630	174.393	-17.655	1504.367	56.084	-254.362	1937.699	180.417	-76.679	1504.526	55.661	-188.906	1524.506	1030.907	-239.071	1612.094	969.039	-177.744	1621.027	958.376	-267.529	1601.302	977.469	-217.996	1643.556	842.671	-202.971	1797.395	553.191	-120.765	1643.672	413.767	-334.195	1707.724	553.940	-88.352	1638.077	473.799	-256.683	1750.129	478.692	-71.807	1623.443	392.212	-233.247	1883.575	257.396	40.420	1620.822	146.903	-193.909	1843.116	297.570	-28.937	1570.652	210.227	-220.405	2014.329	211.077	-36.094	1594.104	36.720	-217.799
	57	0.62500	1584.426	629.480	-190.534	1579.524	645.957	-139.170	1594.100	638.318	-255.456	1763.886	408.798	-95.452	1571.006	341.063	-226.717	1943.087	179.826	-50.551	1511.237	55.176	-222.464	1617.027	712.039	-198.118	1606.154	717.738	-111.374	1627.900	706.340	-284.861	1477.010	703.209	-165.369	1487.283	697.495	-249.507	1756.562	411.461	-50.117	1571.141	336.434	-274.493	1766.064	402.386	-133.502	1561.981	347.440	-186.647	1933.771	178.842	-18.387	1504.425	56.128	-254.228	1947.356	185.066	-77.643	1504.666	55.699	-188.771	1528.498	1030.750	-238.090	1616.270	968.410	-177.325	1624.666	957.894	-267.128	1605.227	976.945	-217.475	1647.145	841.983	-202.940	1801.095	554.305	-122.344	1644.156	413.116	-335.053	1711.859	554.490	-88.759	1639.856	473.061	-257.591	1754.902	479.616	-72.169	1625.171	391.453	-234.148	1892.531	261.313	39.750	1621.450	146.297	-194.060	1850.785	300.361	-29.542	1571.559	209.786	-220.325	2023.736	216.970	-37.767	1594.126	36.741	-217.790
	58	0.63333	1587.425	629.131	-190.453	1582.775	645.663	-139.074	1596.492	637.904	-255.457	1768.839	409.562	-95.739	1572.995	340.735	-226.673	1952.561	184.085	-51.392	1511.360	55.180	-222.338	1619.922	711.650	-198.354	1609.689	717.438	-111.522	1630.156	705.861	-285.185	1480.229	703.031	-164.396	1489.985	697.237	-248.616	1762.010	412.513	-50.344	1572.472	336.149	-274.450	1770.399	402.839	-133.721	1564.316	346.826	-186.672	1943.497	183.039	-19.159	1504.500	56.179	-254.090	1956.447	189.521	-78.554	1504.844	55.659	-188.610	1532.482	1030.504	-237.084	1620.474	967.758	-176.872	1628.308	957.456	-266.714	1609.201	976.424	-216.988	1650.857	841.318	-202.975	1804.689	555.204	-124.096	1644.791	412.462	-335.811	1716.056	554.961	-89.337	1641.701	472.316	-258.356	1759.667	480.494	-72.812	1627.024	390.724	-234.924	1901.125	264.990	39.044	1622.102	145.662	-194.159	1858.149	303.293	-30.130	1572.565	209.289	-220.154	2032.711	222.550	-39.500	1594.151	36.768	-217.768
